<?xml version="1.0" encoding="UTF-8"?>
<svg xmlns="http://www.w3.org/2000/svg" width="960" height="680" viewBox="0 0 960 680">
<style>
  .box { filter: drop-shadow(0 2px 3px rgba(0,0,0,0.1)); }
  .title { font-weight: bold; }
</style>
<defs>

</defs>
<rect width="960" height="680" fill="#fafafa"/>
<rect x="30" y="20" width="100" height="40" rx="20" fill="#e3f2fd" stroke="#1565c0" stroke-width="1.5" class=""/>
<text x="80" y="34" font-family="sans-serif" font-size="10" fill="#1565c0" text-anchor="middle" font-weight="bold">Browser</text>
<line x1="80" y1="60" x2="80" y2="650" stroke="#ccc" stroke-width="1" stroke-dasharray="4,4"/>
<rect x="200" y="20" width="100" height="40" rx="20" fill="#e3f2fd" stroke="#1565c0" stroke-width="1.5" class=""/>
<text x="250" y="34" font-family="sans-serif" font-size="10" fill="#1565c0" text-anchor="middle" font-weight="bold">main.go</text>
<text x="250" y="48" font-family="sans-serif" font-size="10" fill="#1565c0" text-anchor="middle" font-weight="bold">(router)</text>
<line x1="250" y1="60" x2="250" y2="650" stroke="#ccc" stroke-width="1" stroke-dasharray="4,4"/>
<rect x="370" y="20" width="100" height="40" rx="20" fill="#e3f2fd" stroke="#1565c0" stroke-width="1.5" class=""/>
<text x="420" y="34" font-family="sans-serif" font-size="10" fill="#1565c0" text-anchor="middle" font-weight="bold">Handler</text>
<line x1="420" y1="60" x2="420" y2="650" stroke="#ccc" stroke-width="1" stroke-dasharray="4,4"/>
<rect x="540" y="20" width="100" height="40" rx="20" fill="#e3f2fd" stroke="#1565c0" stroke-width="1.5" class=""/>
<text x="590" y="34" font-family="sans-serif" font-size="10" fill="#1565c0" text-anchor="middle" font-weight="bold">yt-dlp</text>
<text x="590" y="48" font-family="sans-serif" font-size="10" fill="#1565c0" text-anchor="middle" font-weight="bold">wrapper</text>
<line x1="590" y1="60" x2="590" y2="650" stroke="#ccc" stroke-width="1" stroke-dasharray="4,4"/>
<rect x="710" y="20" width="100" height="40" rx="20" fill="#e3f2fd" stroke="#1565c0" stroke-width="1.5" class=""/>
<text x="760" y="34" font-family="sans-serif" font-size="10" fill="#1565c0" text-anchor="middle" font-weight="bold">yt-dlp</text>
<text x="760" y="48" font-family="sans-serif" font-size="10" fill="#1565c0" text-anchor="middle" font-weight="bold">(external)</text>
<line x1="760" y1="60" x2="760" y2="650" stroke="#ccc" stroke-width="1" stroke-dasharray="4,4"/>
<rect x="850" y="20" width="100" height="40" rx="20" fill="#e3f2fd" stroke="#1565c0" stroke-width="1.5" class=""/>
<text x="900" y="34" font-family="sans-serif" font-size="10" fill="#1565c0" text-anchor="middle" font-weight="bold">Disk</text>
<line x1="900" y1="60" x2="900" y2="650" stroke="#ccc" stroke-width="1" stroke-dasharray="4,4"/>
<line x1="40" y1="80" x2="920" y2="80" stroke="#e0e0e0" stroke-width="1"/>
<text x="50" y="75" font-family="sans-serif" font-size="11" fill="#888" text-anchor="start" font-weight="bold">1. Video Search</text>
<line x1="80" y1="100" x2="250" y2="100" stroke="#455a64" stroke-width="1.5"/>
<polygon points="250,100 241.2,95.2 241.2,104.8" fill="#455a64"/>
<text x="165.0" y="92" font-family="sans-serif" font-size="10" fill="#455a64" text-anchor="middle" font-weight="normal">GET /api/info?url=...</text>
<line x1="250" y1="130" x2="420" y2="130" stroke="#455a64" stroke-width="1.5"/>
<polygon points="420,130 411.2,125.2 411.2,134.8" fill="#455a64"/>
<text x="335.0" y="122" font-family="sans-serif" font-size="10" fill="#455a64" text-anchor="middle" font-weight="normal">handleInfo()</text>
<line x1="420" y1="160" x2="590" y2="160" stroke="#455a64" stroke-width="1.5"/>
<polygon points="590,160 581.2,155.2 581.2,164.8" fill="#455a64"/>
<text x="505.0" y="152" font-family="sans-serif" font-size="10" fill="#455a64" text-anchor="middle" font-weight="normal">FetchInfo(url, proxy, cookies)</text>
<line x1="590" y1="190" x2="760" y2="190" stroke="#455a64" stroke-width="1.5"/>
<polygon points="760,190 751.2,185.2 751.2,194.8" fill="#455a64"/>
<text x="675.0" y="182" font-family="sans-serif" font-size="10" fill="#455a64" text-anchor="middle" font-weight="normal">--dump-json &lt;url&gt;</text>
<line x1="760" y1="220" x2="590" y2="220" stroke="#455a64" stroke-width="1.5"/>
<polygon points="590,220 598.8,224.8 598.8,215.2" fill="#455a64"/>
<text x="675.0" y="212" font-family="sans-serif" font-size="10" fill="#455a64" text-anchor="middle" font-weight="normal">JSON (title, formats, ...)</text>
<line x1="590" y1="250" x2="420" y2="250" stroke="#455a64" stroke-width="1.5"/>
<polygon points="420,250 428.8,254.8 428.8,245.2" fill="#455a64"/>
<text x="505.0" y="242" font-family="sans-serif" font-size="10" fill="#455a64" text-anchor="middle" font-weight="normal">ParseVideoInfo(raw)</text>
<line x1="420" y1="280" x2="250" y2="280" stroke="#455a64" stroke-width="1.5"/>
<polygon points="250,280 258.8,284.8 258.8,275.2" fill="#455a64"/>
<text x="335.0" y="272" font-family="sans-serif" font-size="10" fill="#455a64" text-anchor="middle" font-weight="normal">VideoInfo JSON</text>
<line x1="250" y1="310" x2="80" y2="310" stroke="#455a64" stroke-width="1.5"/>
<polygon points="80,310 88.8,314.8 88.8,305.2" fill="#455a64"/>
<text x="165.0" y="302" font-family="sans-serif" font-size="10" fill="#455a64" text-anchor="middle" font-weight="normal">renderLocalInfo() + renderLocalFormats()</text>
<line x1="40" y1="350" x2="920" y2="350" stroke="#e0e0e0" stroke-width="1"/>
<text x="50" y="345" font-family="sans-serif" font-size="11" fill="#888" text-anchor="start" font-weight="bold">2. Start Download</text>
<line x1="80" y1="370" x2="250" y2="370" stroke="#455a64" stroke-width="1.5"/>
<polygon points="250,370 241.2,365.2 241.2,374.8" fill="#455a64"/>
<text x="165.0" y="362" font-family="sans-serif" font-size="10" fill="#455a64" text-anchor="middle" font-weight="normal">POST /api/download {url,format_id,save_dir}</text>
<line x1="250" y1="400" x2="420" y2="400" stroke="#455a64" stroke-width="1.5"/>
<polygon points="420,400 411.2,395.2 411.2,404.8" fill="#455a64"/>
<text x="335.0" y="392" font-family="sans-serif" font-size="10" fill="#455a64" text-anchor="middle" font-weight="normal">handleDownload()</text>
<line x1="420" y1="430" x2="420" y2="430" stroke="#455a64" stroke-width="1.5"/>
<text x="420.0" y="422" font-family="sans-serif" font-size="10" fill="#455a64" text-anchor="middle" font-weight="normal">taskManager.Enqueue(opts, ...)</text>
<line x1="420" y1="460" x2="80" y2="460" stroke="#666" stroke-width="1.5"/>
<polygon points="80,460 88.8,464.8 88.8,455.2" fill="#666"/>
<text x="250.0" y="452" font-family="sans-serif" font-size="10" fill="#666" text-anchor="middle" font-weight="normal">WS→ {status:'queued', task_id:'ts_xxx'}</text>
<line x1="40" y1="500" x2="920" y2="500" stroke="#e0e0e0" stroke-width="1"/>
<text x="50" y="495" font-family="sans-serif" font-size="11" fill="#888" text-anchor="start" font-weight="bold">3. Download Execution (goroutine)</text>
<line x1="420" y1="520" x2="590" y2="520" stroke="#2e7d32" stroke-width="1.5"/>
<polygon points="590,520 581.2,515.2 581.2,524.8" fill="#2e7d32"/>
<text x="505.0" y="512" font-family="sans-serif" font-size="10" fill="#2e7d32" text-anchor="middle" font-weight="normal">DownloadManager.Download(opts)</text>
<line x1="590" y1="550" x2="760" y2="550" stroke="#2e7d32" stroke-width="1.5"/>
<polygon points="760,550 751.2,545.2 751.2,554.8" fill="#2e7d32"/>
<text x="675.0" y="542" font-family="sans-serif" font-size="10" fill="#2e7d32" text-anchor="middle" font-weight="normal">yt-dlp --newline --format ... &lt;url&gt;</text>
<line x1="760" y1="580" x2="590" y2="580" stroke="#2e7d32" stroke-width="1.5"/>
<polygon points="590,580 598.8,584.8 598.8,575.2" fill="#2e7d32"/>
<text x="675.0" y="572" font-family="sans-serif" font-size="10" fill="#2e7d32" text-anchor="middle" font-weight="normal">stdout: [download] 45.3% of ~100MiB ...</text>
<line x1="590" y1="610" x2="590" y2="610" stroke="#666" stroke-width="1.5"/>
<text x="590.0" y="602" font-family="sans-serif" font-size="10" fill="#666" text-anchor="middle" font-weight="normal">parseProgressLine(line)</text>
<line x1="590" y1="640" x2="80" y2="640" stroke="#e65100" stroke-width="1.5"/>
<polygon points="80,640 88.8,644.8 88.8,635.2" fill="#e65100"/>
<text x="335.0" y="632" font-family="sans-serif" font-size="10" fill="#e65100" text-anchor="middle" font-weight="normal">WS→ {status:'downloading', percent:45.3, ...}</text>
<line x1="760" y1="670" x2="900" y2="670" stroke="#7b1fa2" stroke-width="1.5"/>
<polygon points="900,670 891.2,665.2 891.2,674.8" fill="#7b1fa2"/>
<text x="830.0" y="662" font-family="sans-serif" font-size="10" fill="#7b1fa2" text-anchor="middle" font-weight="normal">Write .part / .ytdl files</text>
<line x1="760" y1="700" x2="590" y2="700" stroke="#2e7d32" stroke-width="1.5"/>
<polygon points="590,700 598.8,704.8 598.8,695.2" fill="#2e7d32"/>
<text x="675.0" y="692" font-family="sans-serif" font-size="10" fill="#2e7d32" text-anchor="middle" font-weight="normal">[Merger] Merging formats...</text>
<line x1="590" y1="730" x2="80" y2="730" stroke="#e65100" stroke-width="1.5"/>
<polygon points="80,730 88.8,734.8 88.8,725.2" fill="#e65100"/>
<text x="335.0" y="722" font-family="sans-serif" font-size="10" fill="#e65100" text-anchor="middle" font-weight="normal">WS→ {status:'merging', ...}</text>
<line x1="760" y1="760" x2="900" y2="760" stroke="#7b1fa2" stroke-width="1.5"/>
<polygon points="900,760 891.2,755.2 891.2,764.8" fill="#7b1fa2"/>
<text x="830.0" y="752" font-family="sans-serif" font-size="10" fill="#7b1fa2" text-anchor="middle" font-weight="normal">ffmpeg merge → final .mkv</text>
<line x1="590" y1="790" x2="80" y2="790" stroke="#e65100" stroke-width="1.5"/>
<polygon points="80,790 88.8,794.8 88.8,785.2" fill="#e65100"/>
<text x="335.0" y="782" font-family="sans-serif" font-size="10" fill="#e65100" text-anchor="middle" font-weight="normal">WS→ {status:'finished', avg_speed_mbps:..., final_size_mb:...}</text>
<line x1="40" y1="830" x2="920" y2="830" stroke="#e0e0e0" stroke-width="1"/>
<text x="50" y="825" font-family="sans-serif" font-size="11" fill="#888" text-anchor="start" font-weight="bold">4. Progress Display</text>
<line x1="80" y1="850" x2="80" y2="850" stroke="#666" stroke-width="1.5"/>
<text x="80.0" y="842" font-family="sans-serif" font-size="10" fill="#666" text-anchor="middle" font-weight="normal">onProgress(data) → update state.tasks → renderQueue()</text>
</svg>